TITLE ""
FILE "1Q_t_1478-1487.mp3" MP3
  TRACK 01 AUDIO
    TITLE "1Q_t_1478-1487_01"
    INDEX 01 00:00:00
  TRACK 02 AUDIO
    TITLE "1Q_t_1478-1487_02"
    INDEX 01 00:01:22
  TRACK 03 AUDIO
    TITLE "1Q_t_1478-1487_03"
    INDEX 01 00:01:27
  TRACK 04 AUDIO
    TITLE "1Q_t_1478-1487_04"
    INDEX 01 00:04:41
  TRACK 05 AUDIO
    TITLE "1Q_t_1478-1487_05"
    INDEX 01 00:04:47
  TRACK 06 AUDIO
    TITLE "1Q_t_1478-1487_06"
    INDEX 01 00:09:09
  TRACK 07 AUDIO
    TITLE "1Q_t_1478-1487_07"
    INDEX 01 00:09:52
  TRACK 08 AUDIO
    TITLE "1Q_t_1478-1487_08"
    INDEX 01 00:10:64
  TRACK 09 AUDIO
    TITLE "1Q_t_1478-1487_09"
    INDEX 01 00:10:71
  TRACK 10 AUDIO
    TITLE "1Q_t_1478-1487_10"
    INDEX 01 00:13:05
  TRACK 11 AUDIO
    TITLE "1Q_t_1478-1487_11"
    INDEX 01 00:13:13
  TRACK 12 AUDIO
    TITLE "1Q_t_1478-1487_12"
    INDEX 01 00:18:65
  TRACK 13 AUDIO
    TITLE "1Q_t_1478-1487_13"
    INDEX 01 00:19:35
  TRACK 14 AUDIO
    TITLE "1Q_t_1478-1487_14"
    INDEX 01 00:20:52
  TRACK 15 AUDIO
    TITLE "1Q_t_1478-1487_15"
    INDEX 01 00:20:62
  TRACK 16 AUDIO
    TITLE "1Q_t_1478-1487_16"
    INDEX 01 00:24:17
  TRACK 17 AUDIO
    TITLE "1Q_t_1478-1487_17"
    INDEX 01 00:24:25
  TRACK 18 AUDIO
    TITLE "1Q_t_1478-1487_18"
    INDEX 01 00:29:22
  TRACK 19 AUDIO
    TITLE "1Q_t_1478-1487_19"
    INDEX 01 00:29:67
  TRACK 20 AUDIO
    TITLE "1Q_t_1478-1487_20"
    INDEX 01 00:31:01
  TRACK 21 AUDIO
    TITLE "1Q_t_1478-1487_21"
    INDEX 01 00:31:09
  TRACK 22 AUDIO
    TITLE "1Q_t_1478-1487_22"
    INDEX 01 00:32:36
  TRACK 23 AUDIO
    TITLE "1Q_t_1478-1487_23"
    INDEX 01 00:32:42
  TRACK 24 AUDIO
    TITLE "1Q_t_1478-1487_24"
    INDEX 01 00:38:48
  TRACK 25 AUDIO
    TITLE "1Q_t_1478-1487_25"
    INDEX 01 00:39:18
  TRACK 26 AUDIO
    TITLE "1Q_t_1478-1487_26"
    INDEX 01 00:40:29
  TRACK 27 AUDIO
    TITLE "1Q_t_1478-1487_27"
    INDEX 01 00:40:37
  TRACK 28 AUDIO
    TITLE "1Q_t_1478-1487_28"
    INDEX 01 00:44:45
  TRACK 29 AUDIO
    TITLE "1Q_t_1478-1487_29"
    INDEX 01 00:44:51
  TRACK 30 AUDIO
    TITLE "1Q_t_1478-1487_30"
    INDEX 01 00:50:04
  TRACK 31 AUDIO
    TITLE "1Q_t_1478-1487_31"
    INDEX 01 00:50:47
  TRACK 32 AUDIO
    TITLE "1Q_t_1478-1487_32"
    INDEX 01 00:51:53
  TRACK 33 AUDIO
    TITLE "1Q_t_1478-1487_33"
    INDEX 01 00:51:63
  TRACK 34 AUDIO
    TITLE "1Q_t_1478-1487_34"
    INDEX 01 00:54:22
  TRACK 35 AUDIO
    TITLE "1Q_t_1478-1487_35"
    INDEX 01 00:54:30
  TRACK 36 AUDIO
    TITLE "1Q_t_1478-1487_36"
    INDEX 01 00:58:45
  TRACK 37 AUDIO
    TITLE "1Q_t_1478-1487_37"
    INDEX 01 00:59:15
  TRACK 38 AUDIO
    TITLE "1Q_t_1478-1487_38"
    INDEX 01 01:00:32
  TRACK 39 AUDIO
    TITLE "1Q_t_1478-1487_39"
    INDEX 01 01:00:40
  TRACK 40 AUDIO
    TITLE "1Q_t_1478-1487_40"
    INDEX 01 01:01:61
  TRACK 41 AUDIO
    TITLE "1Q_t_1478-1487_41"
    INDEX 01 01:01:67
  TRACK 42 AUDIO
    TITLE "1Q_t_1478-1487_42"
    INDEX 01 01:06:25
  TRACK 43 AUDIO
    TITLE "1Q_t_1478-1487_43"
    INDEX 01 01:06:70
  TRACK 44 AUDIO
    TITLE "1Q_t_1478-1487_44"
    INDEX 01 01:08:12
  TRACK 45 AUDIO
    TITLE "1Q_t_1478-1487_45"
    INDEX 01 01:08:20
  TRACK 46 AUDIO
    TITLE "1Q_t_1478-1487_46"
    INDEX 01 01:11:20
  TRACK 47 AUDIO
    TITLE "1Q_t_1478-1487_47"
    INDEX 01 01:11:28
  TRACK 48 AUDIO
    TITLE "1Q_t_1478-1487_48"
    INDEX 01 01:16:27
  TRACK 49 AUDIO
    TITLE "1Q_t_1478-1487_49"
    INDEX 01 01:16:72
  TRACK 50 AUDIO
    TITLE "1Q_t_1478-1487_50"
    INDEX 01 01:18:06
  TRACK 51 AUDIO
    TITLE "1Q_t_1478-1487_51"
    INDEX 01 01:18:16
  TRACK 52 AUDIO
    TITLE "1Q_t_1478-1487_52"
    INDEX 01 01:19:49
  TRACK 53 AUDIO
    TITLE "1Q_t_1478-1487_53"
    INDEX 01 01:19:57
  TRACK 54 AUDIO
    TITLE "1Q_t_1478-1487_54"
    INDEX 01 01:24:46
  TRACK 55 AUDIO
    TITLE "1Q_t_1478-1487_55"
    INDEX 01 01:25:24
  TRACK 56 AUDIO
    TITLE "1Q_t_1478-1487_56"
    INDEX 01 01:26:47
  TRACK 57 AUDIO
    TITLE "1Q_t_1478-1487_57"
    INDEX 01 01:26:57
  TRACK 58 AUDIO
    TITLE "1Q_t_1478-1487_58"
    INDEX 01 01:28:09
  TRACK 59 AUDIO
    TITLE "1Q_t_1478-1487_59"
    INDEX 01 01:28:17
  TRACK 60 AUDIO
    TITLE "1Q_t_1478-1487_60"
    INDEX 01 01:32:58
